<svg width="16" height="26" viewBox="0 0 16 26" fill="none" xmlns="http://www.w3.org/2000/svg">
<path d="M8.70711 1.25725C8.31658 0.866724 7.68342 0.866724 7.29289 1.25725L0.928932 7.62121C0.538408 8.01173 0.538408 8.6449 0.928932 9.03542C1.31946 9.42595 1.95262 9.42595 2.34315 9.03542L8 3.37857L13.6569 9.03542C14.0474 9.42595 14.6805 9.42595 15.0711 9.03542C15.4616 8.6449 15.4616 8.01173 15.0711 7.62121L8.70711 1.25725ZM7 24.4097C7 24.962 7.44772 25.4097 8 25.4097C8.55228 25.4097 9 24.962 9 24.4097H7ZM7 1.96436V24.4097H9V1.96436H7Z" fill="white"/>
</svg>
