<svg width="16" height="26" viewBox="0 0 16 26" fill="none" xmlns="http://www.w3.org/2000/svg">
<path d="M8.70686 1.25578C8.31634 0.86526 7.68317 0.86526 7.29265 1.25578L0.928688 7.61974C0.538164 8.01027 0.538164 8.64343 0.928688 9.03396C1.31921 9.42448 1.95238 9.42448 2.3429 9.03396L7.99976 3.3771L13.6566 9.03396C14.0471 9.42448 14.6803 9.42448 15.0708 9.03396C15.4613 8.64343 15.4613 8.01027 15.0708 7.61974L8.70686 1.25578ZM6.99976 24.4082C6.99976 24.9605 7.44747 25.4082 7.99976 25.4082C8.55204 25.4082 8.99976 24.9605 8.99976 24.4082H6.99976ZM6.99976 1.96289V24.4082H8.99976V1.96289H6.99976Z" fill="#121212"/>
</svg>
