<svg width="565" height="535" viewBox="0 0 565 535" fill="none" xmlns="http://www.w3.org/2000/svg">
<path d="M275.5 55.5949V56.0949H276H538C545.262 56.0949 551.875 60.0463 556.691 66.5131C561.507 72.9799 564.5 81.937 564.5 91.8524V498.742C564.5 508.658 561.507 517.615 556.691 524.082C551.875 530.549 545.262 534.5 538 534.5H27C19.7384 534.5 13.1248 530.549 8.30914 524.082C3.49348 517.615 0.5 508.658 0.5 498.742V21.4859C0.5 14.1724 2.7048 8.94213 6.20633 5.5392C9.71165 2.13258 14.5754 0.5 20 0.5H256C261.425 0.5 266.288 2.13258 269.794 5.5392C273.295 8.94213 275.5 14.1724 275.5 21.4859V55.5949Z" fill="#121212" stroke="white"/>
</svg>
