<svg width="565" height="631" viewBox="0 0 565 631" fill="none" xmlns="http://www.w3.org/2000/svg">
<path d="M275.5 65.5708V66.0708H276H538C545.224 66.0708 551.837 70.7093 556.669 78.3628C561.497 86.0099 564.5 96.6051 564.5 108.334V588.236C564.5 599.966 561.497 610.561 556.669 618.208C551.837 625.861 545.224 630.5 538 630.5H27C19.7763 630.5 13.1632 625.861 8.3309 618.208C3.50268 610.561 0.5 599.966 0.5 588.236V25.3414C0.5 16.6754 2.71743 10.4705 6.23463 6.43895C9.74605 2.41405 14.6007 0.5 20 0.5H256C261.399 0.5 266.254 2.41405 269.765 6.43895C273.283 10.4705 275.5 16.6754 275.5 25.3414V65.5708Z" fill="#121212" stroke="white"/>
</svg>
